<svg width="12" height="11" viewBox="0 0 12 11" fill="none" xmlns="http://www.w3.org/2000/svg">
<path d="M6.26583 9.80383C5.96003 10.2189 5.4838 10.474 4.96889 10.4993C4.45399 10.525 3.95529 10.3174 3.61027 9.93425L0.518476 6.50319C0.027092 5.95823 0.0707415 5.11817 0.615707 4.62679C1.16119 4.13541 2.00073 4.17932 2.49211 4.72454L4.67955 7.15219C4.71196 7.18826 4.75901 7.2076 4.80736 7.20525C4.85598 7.20289 4.90041 7.17859 4.92943 7.1399L9.42559 1.04178C9.86077 0.451075 10.6925 0.325354 11.2834 0.760803C11.8739 1.19625 11.9993 2.02795 11.5639 2.61839L6.26583 9.80383Z" fill="white"/>
</svg>
