<svg width="23" height="17" viewBox="0 0 23 17" fill="none" xmlns="http://www.w3.org/2000/svg">
<path d="M2.6868 11.3288C2.04709 11.3288 1.45713 11.3288 0.867168 11.3288C0.739225 11.3288 0.604175 11.3288 0.476232 11.3288C0.199022 11.3359 0 11.2364 0 10.9378C0 10.6464 0.220346 10.5398 0.48334 10.5327C1.03065 10.5256 1.57085 10.5327 2.11816 10.5327C2.29586 10.5327 2.46645 10.5327 2.62994 10.5327C2.65837 10.4829 2.67969 10.4616 2.67969 10.4403C2.72234 9.65129 2.72234 9.65129 3.52554 9.65129C4.07996 9.65129 4.64148 9.65129 5.1959 9.65129C5.47311 9.65129 5.70056 9.57311 5.7361 9.26036C5.76454 9.01158 5.54419 8.84099 5.1959 8.83388C4.53486 8.82677 3.86672 8.83388 3.20568 8.83388C2.82185 8.83388 2.69391 8.70594 2.6868 8.32922C2.67969 8.1373 2.6868 7.9525 2.6868 7.76058C2.6868 7.24881 2.79342 7.14219 3.31941 7.14219C3.86672 7.14219 4.40692 7.14219 4.95423 7.14219C5.35938 7.14219 5.5513 7.00714 5.52997 6.72993C5.50154 6.38164 5.25276 6.33899 4.96845 6.33899C3.99466 6.33899 3.02798 6.33189 2.05419 6.3461C1.75566 6.3461 1.52821 6.27502 1.49267 5.94806C1.47134 5.70639 1.6988 5.55001 2.04709 5.54291C2.22478 5.54291 2.40248 5.5358 2.58018 5.5358C2.6015 5.5358 2.62283 5.52158 2.64415 5.51447C2.65837 5.49315 2.67258 5.47893 2.67969 5.45761C2.72945 4.64731 2.73656 4.64731 3.55397 4.64731C4.05152 4.64731 4.54908 4.64731 5.04663 4.64731C5.31674 4.64731 5.52997 4.5549 5.52997 4.25637C5.52997 3.95784 5.32384 3.85832 5.05374 3.85832C3.61083 3.85832 2.16081 3.85832 0.717902 3.85832C0.625498 3.85832 0.525987 3.85832 0.433584 3.85832C0.17059 3.84411 0 3.70906 0.00710794 3.43896C0.0142159 3.19018 0.184806 3.06224 0.433584 3.05513C1.05197 3.04802 1.66326 3.05513 2.28165 3.05513C2.40959 3.05513 2.53753 3.05513 2.65837 3.05513C2.70102 2.69973 2.70102 2.37277 2.7792 2.07423C2.93558 1.44163 3.46867 0.993826 4.11549 0.922747C4.22922 0.894315 4.35716 0.887207 4.49222 0.887207C7.56995 0.887207 10.6477 0.887207 13.7325 0.887207C14.1803 0.887207 14.5997 0.958286 14.9622 1.25682C15.3674 1.598 15.5593 2.05291 15.5593 2.57179C15.5664 6.48826 15.5593 10.4118 15.5593 14.3283C15.5593 14.7406 15.4171 14.8685 14.9977 14.8756C13.633 14.8756 12.2754 14.8756 10.9107 14.8756C10.2568 14.8756 10.2354 14.8543 10.1715 14.2146C10.0293 12.7504 9.02708 11.6415 7.59128 11.343C5.80718 10.9734 3.99466 12.3168 3.83118 14.1222C3.82407 14.2075 3.81696 14.2857 3.80275 14.371C3.74588 14.8259 3.64637 14.9041 3.14171 14.8756C2.80763 14.8614 2.69391 14.7193 2.69391 14.2999C2.6868 13.3332 2.6868 12.3594 2.6868 11.3288ZM4.24344 11.3288C4.44246 11.3288 4.66281 11.3785 4.8405 11.3145C4.99688 11.2577 5.1959 11.0942 5.21723 10.952C5.23855 10.8383 5.03242 10.5895 4.90448 10.5753C4.48511 10.5256 4.05152 10.5185 3.63926 10.5753C3.51132 10.5895 3.33362 10.8383 3.32651 10.9947C3.31941 11.1013 3.53975 11.2719 3.68902 11.3217C3.8525 11.3714 4.05863 11.3217 4.24344 11.3288ZM7.22877 6.33899C7.72633 6.33899 7.93246 6.22527 7.93956 5.94806C7.94667 5.67085 7.72633 5.54291 7.24299 5.54291C6.74543 5.54291 6.54641 5.65663 6.5393 5.93384C6.5393 6.22527 6.73832 6.33899 7.22877 6.33899Z" fill="#686877"/>
<path d="M16.597 14.4847C16.597 13.1555 17.6632 12.0894 18.9853 12.0894C20.3216 12.0894 21.3878 13.1698 21.3878 14.5061C21.3807 15.821 20.3003 16.8872 18.9782 16.8801C17.649 16.8801 16.597 15.8139 16.597 14.4847Z" fill="#686877"/>
<path d="M4.5917 14.4847C4.59881 13.1627 5.665 12.0894 6.98707 12.0894C8.32336 12.0894 9.39666 13.1769 9.38245 14.5132C9.37534 15.8281 8.28782 16.8943 6.97286 16.8872C5.65078 16.8801 4.5917 15.8068 4.5917 14.4847Z" fill="#686877"/>
<path d="M16.334 9.27454C16.334 8.52821 16.3411 7.78187 16.334 7.03554C16.334 6.7299 16.4264 6.51666 16.7534 6.48823C17.0235 6.4598 17.1941 6.68725 17.1941 7.04976C17.1941 7.67526 17.1941 8.30786 17.1941 8.93336C17.2012 9.98533 17.8338 10.6322 18.9 10.6464C19.952 10.6606 21.011 10.6464 22.063 10.6464C22.6601 10.6464 22.7383 10.7246 22.7383 11.3216C22.7383 12.331 22.7383 13.3332 22.7383 14.3425C22.7383 14.5273 22.7738 14.769 22.5108 14.7832C22.2194 14.8045 22.1981 14.5628 22.1839 14.3425C22.1057 13.0844 21.4944 12.1604 20.3642 11.6273C19.2554 11.1013 18.1679 11.2008 17.1301 11.8903C16.9737 11.9969 16.7036 12.0822 16.5686 12.0111C16.4335 11.94 16.3553 11.6699 16.3482 11.478C16.3198 10.7388 16.334 10.0067 16.334 9.27454Z" fill="#686877"/>
<path d="M20.3287 9.83605C19.8311 9.83605 19.3336 9.84316 18.836 9.83605C18.2887 9.82184 17.983 9.50909 17.9759 8.96178C17.9688 8.30785 17.9688 7.66103 17.9759 7.0071C17.983 6.64459 18.1394 6.48822 18.4948 6.48111C18.7933 6.474 19.0848 6.46689 19.3833 6.48111C20.0586 6.52376 20.613 6.80807 21.0039 7.3696C21.402 7.94534 21.8 8.51398 22.1767 9.10394C22.262 9.2461 22.326 9.48777 22.262 9.6086C22.1981 9.72943 21.9564 9.80762 21.7929 9.82184C21.3025 9.85027 20.812 9.83605 20.3287 9.83605Z" fill="#686877"/>
<path d="M1.19437 8.83424C0.682399 8.83424 0.497522 8.73469 0.490412 8.45026C0.483301 8.15873 0.68951 8.03785 1.2157 8.03785C1.32236 8.03785 1.42902 8.02363 1.53568 8.04496C1.77744 8.08051 1.93387 8.21561 1.91254 8.4716C1.89832 8.70625 1.749 8.82713 1.51434 8.83424C1.40768 8.83424 1.30103 8.83424 1.19437 8.83424Z" fill="#686877"/>
</svg>
