<svg width="21" height="21" viewBox="0 0 21 21" fill="none" xmlns="http://www.w3.org/2000/svg">
<path d="M20.3034 8.89128V11.3913C20.2514 11.5319 20.267 11.6725 20.2514 11.8132C20.0118 13.9642 19.1889 15.8652 17.7357 17.4746C17.6055 17.6204 17.4701 17.7611 17.3295 17.9017C17.2826 17.9486 17.2357 17.9954 17.1889 18.0371C16.4857 18.7194 15.7097 19.2819 14.8659 19.709L14.8607 19.7142C14.8607 19.7142 14.8607 19.7142 14.8555 19.7142V19.7246C14.4076 19.9277 13.9441 20.1361 13.4597 20.2975C13.4493 20.3027 13.4441 20.3027 13.4336 20.3079C12.9805 20.4538 12.5066 20.5736 12.017 20.6621C11.642 20.7298 11.2618 20.7663 10.8816 20.8184H9.70969C9.6576 20.8184 9.61073 20.7819 9.55864 20.7819C7.99614 20.6725 6.5326 20.2194 5.19406 19.4017C3.61073 18.4329 2.40239 17.1986 1.56906 15.709C1.03781 14.7559 0.673228 13.6986 0.454478 12.5319C0.381561 12.1517 0.35552 11.7715 0.303436 11.3913V10.2194C0.303436 10.0788 0.329478 9.93815 0.345103 9.79753C0.501353 8.37044 0.928436 7.05273 1.60552 5.85482C1.9701 5.25065 2.36594 4.67773 2.85031 4.14128C4.39198 2.43294 6.29823 1.37044 8.56906 0.969401C8.94406 0.901693 9.32427 0.870443 9.70448 0.818359H10.7982C10.8764 0.818359 10.9493 0.833984 11.0274 0.844401C11.3451 0.880859 11.6628 0.901693 11.9753 0.953776C13.2878 1.17253 14.5066 1.64128 15.6264 2.35482C15.8816 2.51628 16.1264 2.69857 16.3868 2.87565C15.6055 3.89128 14.8347 4.89128 14.0691 5.88607C12.8451 4.96419 11.4493 4.57357 10.0951 4.62565C10.0274 4.62565 9.95448 4.63086 9.88677 4.63607C9.88156 4.63607 9.87635 4.63607 9.87114 4.63607C9.6576 4.65169 9.44406 4.67773 9.23573 4.71419C9.20448 4.7194 9.17323 4.72461 9.14198 4.72982C9.10552 4.73503 9.07427 4.74544 9.03781 4.75065C8.99614 4.76107 8.95969 4.76628 8.91802 4.77669C8.87114 4.78711 8.82948 4.79753 8.7826 4.80794C8.69406 4.82878 8.60552 4.85482 8.51698 4.88086C8.48573 4.89128 8.44927 4.89128 8.41802 4.90169C8.28781 4.94336 8.1576 4.97982 8.0326 5.0319C7.9701 5.08398 7.9076 5.08919 7.8451 5.11523C7.81385 5.13086 7.7826 5.14648 7.75135 5.1569C7.66802 5.19336 7.58469 5.23503 7.50656 5.27669C7.4701 5.29232 7.43364 5.31315 7.40239 5.32878C7.37114 5.3444 7.33469 5.36523 7.30344 5.38086C6.81385 5.64648 6.36594 5.97982 5.9701 6.37044C5.54302 6.79232 5.18364 7.26628 4.89719 7.7819C3.9076 9.55273 3.79302 11.7559 4.82948 13.709C4.83989 13.7246 4.85031 13.7454 4.85552 13.7611C5.86594 15.6152 7.74094 16.834 9.86594 16.9746C9.87114 16.9746 9.87635 16.9746 9.88156 16.9746C9.94927 16.9798 10.0222 16.985 10.0899 16.985C10.0951 16.985 10.1003 16.985 10.1055 16.985C10.5899 17.0007 11.0847 16.9538 11.5847 16.8496C12.0691 16.7507 12.5222 16.584 12.9389 16.3861C12.9389 16.3861 12.9389 16.3861 12.9441 16.3861C13.3399 16.1986 13.7045 15.9694 14.0378 15.709C14.0847 15.6725 14.1316 15.6361 14.1784 15.5996C14.2409 15.5475 14.3034 15.4954 14.3607 15.4434C14.4597 15.36 14.5534 15.2715 14.642 15.1829C14.6576 15.1673 14.6732 15.1517 14.6889 15.1361C14.7201 15.1048 14.7514 15.0684 14.7826 15.0371C14.8243 14.9954 14.8659 14.9486 14.9024 14.9069C14.9232 14.8809 14.9441 14.86 14.9649 14.834C15.0066 14.7871 15.043 14.7402 15.0847 14.6934C15.1628 14.5996 15.2357 14.5007 15.3086 14.4069C15.3243 14.3861 15.3399 14.3652 15.3555 14.3444C15.3972 14.2819 15.4441 14.2194 15.4857 14.1569C15.4857 14.1569 15.4857 14.1517 15.4909 14.1517C15.5066 14.1309 15.517 14.11 15.5326 14.0892C15.5482 14.0632 15.5691 14.0319 15.5847 14.0059C15.6003 13.9798 15.6107 13.959 15.6264 13.9329C15.6628 13.8757 15.6941 13.8184 15.7253 13.7611C15.7357 13.7402 15.7461 13.7194 15.7566 13.7038C15.7774 13.6621 15.8034 13.6204 15.8243 13.5736C15.8347 13.5527 15.8451 13.5319 15.8555 13.5111C15.8659 13.4902 15.8764 13.4694 15.8868 13.4486C15.9076 13.4069 15.9232 13.3652 15.9441 13.3184C15.9545 13.2975 15.9597 13.2767 15.9701 13.2559C15.9857 13.2142 16.0066 13.1725 16.0222 13.1309C16.0378 13.0944 16.0482 13.0579 16.0639 13.0215C16.0795 12.985 16.0899 12.9486 16.1003 12.9121C16.1264 12.8392 16.1472 12.7663 16.1628 12.6986H10.3034V8.89648H20.0378C20.1211 8.89128 20.1993 8.89128 20.3034 8.89128Z" fill="#FFD500"/>
<path d="M16.3868 2.87565C15.6055 3.89128 14.8347 4.89128 14.0691 5.88607C12.8451 4.96419 11.4493 4.57357 10.0951 4.62565C10.0274 4.62565 9.95448 4.63086 9.88677 4.63607V0.818359H10.7982C10.8764 0.818359 10.9493 0.833984 11.0274 0.844401C11.3451 0.880859 11.6628 0.901693 11.9753 0.953776C13.2878 1.17253 14.5066 1.64128 15.6264 2.35482C15.8868 2.51628 16.1316 2.69857 16.3868 2.87565Z" fill="#D93F21"/>
<path d="M20.3034 8.89111V11.3911C20.2514 11.5317 20.267 11.6724 20.2514 11.813C20.0118 13.964 19.1889 15.8651 17.7357 17.4744C17.6055 17.6203 17.4701 17.7609 17.3295 17.9015C17.2826 17.9484 17.2357 17.9953 17.1889 18.0369C16.4805 18.714 15.7045 19.2713 14.8607 19.7036H14.8555L14.8607 19.7088C14.8607 19.7088 14.8607 19.7088 14.8555 19.7088V19.7192C14.4076 19.9224 13.9441 20.1307 13.4597 20.2922H10.0951V16.9849C10.1003 16.9849 10.1055 16.9849 10.1107 16.9849C10.5951 17.0005 11.0899 16.9536 11.5899 16.8494C12.0743 16.7505 12.5274 16.5838 12.9441 16.3859C12.9441 16.3859 12.9441 16.3859 12.9493 16.3859C13.4024 16.1672 13.8139 15.9015 14.1836 15.5994C14.2461 15.5474 14.3086 15.4953 14.3659 15.4432C14.4649 15.3599 14.5586 15.2713 14.6472 15.1828C14.6628 15.1672 14.6784 15.1515 14.6941 15.1359C14.7253 15.1047 14.7566 15.0682 14.7878 15.0369C14.8295 14.9953 14.8711 14.9484 14.9076 14.9067C14.9284 14.8807 14.9493 14.8599 14.9701 14.8338C15.0118 14.7869 15.0482 14.7401 15.0899 14.6932C15.168 14.5994 15.2409 14.5005 15.3139 14.4067C15.3295 14.3859 15.3451 14.3651 15.3607 14.3442C15.4024 14.2817 15.4493 14.2192 15.4909 14.1567C15.4909 14.1567 15.4909 14.1515 15.4961 14.1515C15.5118 14.1307 15.5222 14.1099 15.5378 14.089C15.5534 14.063 15.5743 14.0317 15.5899 14.0057C15.6055 13.9797 15.6159 13.9588 15.6316 13.9328C15.668 13.8755 15.6993 13.8182 15.7305 13.7609C15.7409 13.7401 15.7513 13.7192 15.7618 13.7036C15.7826 13.6619 15.8086 13.6203 15.8295 13.5734C15.8399 13.5526 15.8503 13.5317 15.8607 13.5109C15.8711 13.4901 15.8816 13.4692 15.892 13.4484C15.9128 13.4067 15.9284 13.3651 15.9493 13.3182C15.9597 13.2974 15.9649 13.2765 15.9753 13.2557C15.9909 13.214 16.0118 13.1724 16.0274 13.1307C16.043 13.0942 16.0534 13.0578 16.0691 13.0213C16.0847 12.9849 16.0951 12.9484 16.1055 12.9119C16.1316 12.839 16.1524 12.7661 16.168 12.6984H10.3034V8.89632H20.0378C20.1211 8.89111 20.1993 8.89111 20.3034 8.89111Z" fill="#167EE6"/>
<path d="M14.8659 19.7088L14.8607 19.714C14.8607 19.714 14.8607 19.714 14.8555 19.714V19.7244C14.4076 19.9276 13.9441 20.1359 13.4597 20.2974C13.4493 20.3026 13.4441 20.3026 13.4336 20.3078C12.9805 20.4536 12.5066 20.5734 12.017 20.6619C11.642 20.7297 11.2618 20.7661 10.8816 20.8182H9.89198V16.9797C9.95968 16.9849 10.0326 16.9901 10.1003 16.9901C10.1055 16.9901 10.1107 16.9901 10.1159 16.9901C10.6003 17.0057 11.0951 16.9588 11.5951 16.8547C12.0795 16.7557 12.5326 16.589 12.9493 16.3911C12.9493 16.3911 12.9493 16.3911 12.9545 16.3911H12.9649L14.8659 19.7036V19.7088Z" fill="#0F993E"/>
<path d="M10.0951 16.9901V20.8182H9.70448C9.65239 20.8182 9.60552 20.7817 9.55343 20.7817C7.99093 20.6724 6.52739 20.2192 5.18885 19.4015C3.60552 18.4328 2.39718 17.1984 1.56385 15.7088L4.85552 13.7661C5.86593 15.6203 7.74093 16.839 9.86593 16.9797C9.87114 16.9797 9.87635 16.9797 9.88156 16.9797C9.95448 16.9849 10.0274 16.9849 10.0951 16.9901Z" fill="#12B347"/>
<path d="M10.0951 0.818359V4.62565C10.0274 4.62565 9.95448 4.63086 9.88677 4.63607C9.63156 4.65169 9.38677 4.68815 9.14198 4.73503C9.10552 4.74023 9.07427 4.75065 9.03781 4.75586C8.99615 4.76628 8.95969 4.77148 8.91802 4.7819C8.87115 4.79232 8.82948 4.80273 8.78261 4.81315C8.69406 4.83398 8.60552 4.86003 8.51698 4.88607C8.48573 4.89648 8.44927 4.89648 8.41802 4.9069C8.28781 4.94857 8.15761 4.98503 8.03261 5.03711C7.97011 5.08919 7.90761 5.0944 7.84511 5.12044C7.81386 5.13607 7.78261 5.15169 7.75136 5.16211C7.66802 5.19857 7.58469 5.24023 7.50656 5.2819C7.47011 5.29753 7.43365 5.31836 7.4024 5.33398C7.37115 5.34961 7.33469 5.37044 7.30344 5.38607C6.81906 5.65169 6.37115 5.98503 5.98052 6.37565C5.55344 6.79753 5.18886 7.27669 4.9024 7.78711H4.89719L1.60552 5.85482C1.97011 5.25065 2.36594 4.67773 2.85031 4.14128C4.39198 2.43294 6.29823 1.37044 8.56906 0.969401C8.94406 0.901693 9.32427 0.870443 9.70448 0.818359H10.0951V0.818359Z" fill="#FF4B26"/>
</svg>
