<svg width="20" height="17" viewBox="0 0 20 17" fill="none" xmlns="http://www.w3.org/2000/svg">
<path d="M10.9905 14.6048C10.5926 14.8577 10.2546 15.0617 10.0033 15.2095C9.75162 15.0596 9.41269 14.8527 9.01355 14.5964C8.11909 14.0219 6.93176 13.2054 5.74938 12.2328C4.56207 11.256 3.40956 10.1459 2.56146 8.98911C1.70515 7.82111 1.22812 6.69969 1.22812 5.67936C1.22812 3.29577 3.1604 1.36344 5.54404 1.36344V1.36347L5.55184 1.36341C7.00759 1.35206 8.36856 2.08426 9.16128 3.30532L9.99514 4.58974L10.8359 3.30979C11.6356 2.09225 12.9956 1.36032 14.4523 1.36344C16.8324 1.37568 18.759 3.30184 18.7719 5.68184C18.7711 6.7239 18.2916 7.85512 17.4377 9.02321C16.5904 10.1824 15.4389 11.2893 14.2525 12.2605C13.071 13.2278 11.8844 14.0367 10.9905 14.6048Z" stroke="#B7B8C5" stroke-width="2"/>
</svg>
