<svg width="21" height="21" viewBox="0 0 21 21" fill="none" xmlns="http://www.w3.org/2000/svg">
<path d="M15.2771 0.811523H6.0271C3.0271 0.811523 0.6521 3.18652 0.6521 6.18652V15.3115C0.6521 18.4365 3.0271 20.8115 6.0271 20.8115H15.1521C18.1521 20.8115 20.5271 18.4365 20.5271 15.4365V6.18652C20.6521 3.18652 18.2771 0.811523 15.2771 0.811523ZM10.6521 16.3115C7.6521 16.3115 5.1521 13.8115 5.1521 10.8115C5.1521 7.81152 7.6521 5.31152 10.6521 5.31152C13.6521 5.31152 16.1521 7.81152 16.1521 10.8115C16.1521 13.8115 13.6521 16.3115 10.6521 16.3115ZM16.2771 6.68652C15.4021 6.68652 14.6521 5.93652 14.6521 5.06152C14.6521 4.18652 15.4021 3.43652 16.2771 3.43652C17.1521 3.43652 17.9021 4.18652 17.9021 5.06152C17.9021 5.93652 17.1521 6.68652 16.2771 6.68652Z" fill="#74CCD8"/>
<path d="M10.6521 6.56152C8.2771 6.56152 6.4021 8.43652 6.4021 10.8115C6.4021 13.1865 8.2771 15.0615 10.6521 15.0615C13.0271 15.0615 14.9021 13.1865 14.9021 10.8115C14.9021 8.43652 13.0271 6.56152 10.6521 6.56152Z" fill="#74CCD8"/>
<path d="M16.2769 4.56152C16.0269 4.56152 15.7769 4.81152 15.7769 5.06152C15.7769 5.31152 16.0269 5.56152 16.2769 5.56152C16.5269 5.56152 16.7769 5.31152 16.7769 5.06152C16.6519 4.81152 16.5269 4.56152 16.2769 4.56152Z" fill="#74CCD8"/>
</svg>
