<svg width="21" height="15" viewBox="0 0 21 15" fill="none" xmlns="http://www.w3.org/2000/svg">
<path d="M13.9951 7.91437L20.8597 12.2559V3.3916L13.9951 7.91437Z" fill="#686877"/>
<path d="M0.496094 3.3916V12.2559L7.36067 7.91437L0.496094 3.3916Z" fill="#686877"/>
<path d="M19.587 0.811523H1.76883C1.13348 0.811523 0.630499 1.286 0.53479 1.89487L10.6779 8.57618L20.821 1.89283C20.7253 1.28396 20.2224 0.811523 19.587 0.811523Z" fill="#686877"/>
<path d="M12.8283 8.68408L11.0282 9.87128C10.9203 9.94052 10.8001 9.97514 10.6779 9.97514C10.5557 9.97514 10.4356 9.94052 10.3277 9.87128L8.52753 8.68408L0.536835 13.7363C0.63458 14.3411 1.13553 14.8115 1.76883 14.8115H19.587C20.2203 14.8115 20.7213 14.3411 20.819 13.7363L12.8283 8.68408Z" fill="#686877"/>
</svg>
