<svg width="31" height="31" viewBox="0 0 31 31" fill="none" xmlns="http://www.w3.org/2000/svg">
<path d="M0.015749 11.5796C0.187597 11.853 0.429745 11.9389 0.750004 11.9389C8.4675 11.9311 16.1928 11.9311 23.9103 11.9311C23.9962 11.9311 24.09 11.9389 24.1759 11.9233C24.4493 11.892 24.6367 11.6811 24.6445 11.4156C24.6524 11.1344 24.4571 10.9078 24.1759 10.8766C24.09 10.8688 24.004 10.8688 23.9103 10.8688C16.1928 10.8688 8.4675 10.8688 0.750004 10.861C0.429745 10.861 0.187597 10.9469 0.015749 11.2203C0.015749 11.3453 0.015749 11.4624 0.015749 11.5796Z" fill="#B7B8C5"/>
<path d="M12.201 0.151854C11.9276 0.276834 11.787 0.479926 11.7949 0.792375C11.8027 3.72159 11.7949 6.6508 11.7949 9.58001C11.7949 9.63469 11.8027 9.69718 11.8105 9.77529C12.1542 9.77529 12.4901 9.77529 12.8494 9.77529C12.8572 9.66593 12.865 9.56438 12.865 9.45503C12.865 6.59612 12.865 3.73721 12.8728 0.870487C12.8728 0.542416 12.7869 0.300268 12.4979 0.144043C12.3963 0.151854 12.2948 0.151854 12.201 0.151854Z" fill="#B7B8C5"/>
<path d="M1.07788 11.0242C1.18724 11.4772 1.25754 13.9154 1.39033 14.3215C2.16364 16.6805 4.35859 18.3287 6.84257 18.3521C10.506 18.3834 14.1617 18.3912 17.8252 18.3521C20.7465 18.3209 23.2071 16.0556 23.5352 13.1889C23.543 13.1421 23.543 11.0945 23.543 11.0242C16.0676 11.0242 8.61572 11.0242 1.07788 11.0242Z" fill="#B7B8C5"/>
<path d="M12.7178 9.78299C12.7178 6.93189 12.7178 4.09642 12.7178 1.26875C12.6865 1.25313 12.6709 1.23751 12.6553 1.23751C11.1946 1.23751 7.72536 1.12034 6.30371 1.58901C3.17922 2.62009 1.12487 5.42432 1.08581 8.75191C1.078 9.08779 1.08581 9.43149 1.08581 9.7908C4.31185 9.78299 9.50736 9.78299 12.7178 9.78299Z" fill="#B7B8C5"/>
<path d="M7.77227 19.5004C8.6315 20.2034 9.49855 20.9064 10.3578 21.6016C10.7562 21.9296 10.9671 22.328 10.7874 22.8357C10.7093 23.0623 10.5296 23.2732 10.35 23.4294C10.0141 23.7184 9.63134 23.9606 9.26421 24.234C9.44387 24.5308 9.62353 24.8042 9.811 25.1166C10.0922 24.9057 10.3812 24.6948 10.6702 24.4839C10.9983 24.2418 11.3264 23.9918 11.6623 23.7497C12.1466 23.3982 12.6074 23.3982 13.0917 23.7575C13.6854 24.1949 14.279 24.648 14.8805 25.0932C15.0601 24.8042 15.232 24.5308 15.4195 24.234C15.0836 23.9918 14.7477 23.7419 14.404 23.4997C13.7088 22.9842 13.6854 22.1952 14.3571 21.6484C15.1695 20.9845 15.9975 20.3205 16.8177 19.6644C16.888 19.6097 16.9583 19.5394 17.0833 19.4301C16.5208 19.4301 16.0209 19.4222 15.5288 19.4379C15.4273 19.4379 15.3179 19.5316 15.232 19.6019C14.529 20.1643 13.8338 20.7345 13.1386 21.2969C12.5762 21.75 12.0919 21.7422 11.5295 21.2891C10.8265 20.7189 10.1234 20.1409 9.41263 19.5785C9.31108 19.4925 9.15486 19.4379 9.02206 19.4379C8.61588 19.4222 8.2097 19.4301 7.80351 19.4301C7.78789 19.4535 7.78008 19.4769 7.77227 19.5004Z" fill="#B7B8C5"/>
<path d="M15.5479 26.9919C15.5714 28.7797 16.9828 30.144 18.7705 30.144C20.5818 30.144 21.9932 28.7091 21.9697 26.8743C21.9462 25.063 20.4877 23.6752 18.6529 23.7222C16.8887 23.7458 15.5244 25.2042 15.5479 26.9919Z" fill="#B7B8C5"/>
<path d="M2.69436 26.9919C2.71789 28.7797 4.12927 30.144 5.91703 30.144C7.7283 30.144 9.13969 28.7091 9.11617 26.8743C9.09264 25.063 7.63421 23.6752 5.79941 23.7222C4.03518 23.7458 2.67084 25.2042 2.69436 26.9919Z" fill="#B7B8C5"/>
<rect width="1.09568" height="6.31499" rx="0.547841" transform="matrix(0.707107 0.707107 0.707107 -0.707107 20.469 11.0243)" fill="#B7B8C5"/>
<rect width="1.09568" height="5.57673" rx="0.547841" transform="matrix(-1.39071e-07 1 1 1.39071e-07 24.4341 6.78076)" fill="#B7B8C5"/>
</svg>
