<svg width="124" height="21" viewBox="0 0 124 21" fill="none" xmlns="http://www.w3.org/2000/svg">
<path d="M10 0.596191L12.2451 7.50602H19.5106L13.6327 11.7765L15.8779 18.6864L10 14.4159L4.12215 18.6864L6.36729 11.7765L0.489435 7.50602H7.75486L10 0.596191Z" fill="#FFC186"/>
<path d="M36 0.596191L38.2451 7.50602H45.5106L39.6327 11.7765L41.8779 18.6864L36 14.4159L30.1221 18.6864L32.3673 11.7765L26.4894 7.50602H33.7549L36 0.596191Z" fill="#FFC186"/>
<path d="M62 0.596191L64.2451 7.50602H71.5106L65.6327 11.7765L67.8779 18.6864L62 14.4159L56.1221 18.6864L58.3673 11.7765L52.4894 7.50602H59.7549L62 0.596191Z" fill="#FFC186"/>
<path d="M88 0.596191L90.2451 7.50602H97.5106L91.6327 11.7765L93.8779 18.6864L88 14.4159L82.1221 18.6864L84.3673 11.7765L78.4894 7.50602H85.7549L88 0.596191Z" fill="#FFC186"/>
<path d="M114 0.596191L116.245 7.50602H123.511L117.633 11.7765L119.878 18.6864L114 14.4159L108.122 18.6864L110.367 11.7765L104.489 7.50602H111.755L114 0.596191Z" fill="#E4E7EE"/>
</svg>
