<svg width="21" height="20" viewBox="0 0 21 20" fill="none" xmlns="http://www.w3.org/2000/svg">
<path d="M14.5738 13.0786C14.7339 13.0786 14.8875 13.1421 15.0008 13.2552L19.5491 17.7938C19.8267 18.0708 19.8265 18.5206 19.5486 18.7973C19.2724 19.0724 18.8258 19.0727 18.5492 18.7978L13.9813 14.2579C13.8705 14.1478 13.8082 13.9981 13.8082 13.8419V13.5289C13.8082 13.3074 13.72 13.095 13.563 12.9387C13.2519 12.6289 12.7707 12.6223 12.4456 12.8781C11.2621 13.8093 9.76861 14.3657 8.14096 14.3657C4.29282 14.3657 1.17715 11.26 1.17715 7.43284C1.17715 3.60572 4.29287 0.5 8.14096 0.5C11.9891 0.5 15.1047 3.60571 15.1047 7.43284C15.1047 9.05167 14.547 10.5372 13.6084 11.715C13.3493 12.0401 13.3551 12.5248 13.668 12.8364C13.8238 12.9916 14.0346 13.0786 14.2545 13.0786H14.5738ZM2.47372 7.43284C2.47372 10.5525 5.01334 13.0786 8.14096 13.0786C11.2686 13.0786 13.8082 10.5525 13.8082 7.43284C13.8082 4.31313 11.2686 1.78704 8.14096 1.78704C5.01334 1.78704 2.47372 4.31313 2.47372 7.43284Z" fill="#B7B8C5" stroke="#B7B8C5"/>
</svg>
