<svg width="25" height="21" viewBox="0 0 25 21" fill="none" xmlns="http://www.w3.org/2000/svg">
<path d="M24.6523 3.17922C23.7369 3.58075 22.7615 3.84691 21.7446 3.97614C22.7907 3.35152 23.5892 2.36998 23.9646 1.18691C22.9892 1.76845 21.9123 2.17922 20.7646 2.40845C19.8384 1.42229 18.5184 0.811523 17.0784 0.811523C14.2846 0.811523 12.0353 3.07922 12.0353 5.85922C12.0353 6.25922 12.0692 6.64383 12.1523 7.00998C7.95687 6.80537 4.24456 4.7946 1.75071 1.73152C1.31533 2.48691 1.05994 3.35152 1.05994 4.28229C1.05994 6.02999 1.95994 7.57922 3.30148 8.47614C2.49071 8.46075 1.69533 8.22537 1.02148 7.8546C1.02148 7.86999 1.02148 7.88999 1.02148 7.90999C1.02148 10.3623 2.77071 12.3992 5.06456 12.8684C4.65379 12.9808 4.2061 13.0346 3.74148 13.0346C3.4184 13.0346 3.09225 13.0161 2.7861 12.9484C3.43994 14.9469 5.29533 16.4161 7.50148 16.4638C5.78456 17.8069 3.60456 18.6161 1.24456 18.6161C0.830711 18.6161 0.433788 18.5977 0.0368652 18.5469C2.27225 19.9884 4.92148 20.8115 7.7784 20.8115C17.0646 20.8115 22.1415 13.1192 22.1415 6.45152C22.1415 6.22845 22.1338 6.01306 22.123 5.79922C23.1246 5.08845 23.9661 4.20075 24.6523 3.17922Z" fill="#74CCD8"/>
</svg>
