<svg width="17" height="17" viewBox="0 0 17 17" fill="none" xmlns="http://www.w3.org/2000/svg">
<path d="M14.1618 3.10295C12.6475 1.63438 10.659 0.811523 8.53895 0.811523C2.39895 0.811523 -1.40676 7.42867 1.62181 12.703L0.496094 16.8115L4.73324 15.7315C6.59324 16.7258 8.06181 16.6401 8.53895 16.683C15.6304 16.683 19.1332 8.12009 14.1618 3.10295Z" fill="#ECEFF1"/>
<path d="M8.53896 15.2973C6.41896 15.2973 5.0361 14.303 4.90753 14.2173L2.39896 14.8659L3.09039 12.4887L2.9161 12.2287C2.27039 11.1887 1.92181 9.98014 1.92181 8.72585C1.92181 2.84585 9.0561 -0.0512888 13.2075 4.05443C17.359 8.16014 14.4647 15.2973 8.53896 15.2973Z" fill="#4CAF50"/>
<path d="M12.1704 10.3686V10.4115C11.9532 10.3257 11.0018 9.84859 10.8304 9.76288C10.4418 9.63431 10.5275 9.72002 9.75036 10.6286C9.62179 10.7572 9.53322 10.7572 9.31893 10.6715C9.10179 10.5857 8.49608 10.3686 7.71893 9.67717C7.11322 9.15717 6.72465 8.50859 6.59322 8.29431C6.37608 7.94859 6.81036 7.90574 7.19893 7.21431C7.28465 7.08574 7.24179 6.95431 7.19893 6.86859C7.15608 6.78288 6.7675 5.78859 6.59322 5.39717C6.41893 5.00859 6.2475 5.05145 6.16179 5.05145C5.77322 5.00859 5.51322 5.00859 5.25322 5.26859C4.17322 6.43717 4.43036 7.69145 5.38179 8.98859C7.19893 11.3657 8.15036 11.8 9.92179 12.4057C10.3961 12.5343 10.8304 12.5343 11.1761 12.4915C11.5646 12.4486 12.3446 12.0172 12.5161 11.54C12.6875 11.0629 12.6904 10.6743 12.6446 10.5886C12.4732 10.4972 12.3446 10.4543 12.1704 10.3686Z" fill="#FAFAFA"/>
</svg>
