<svg width="30" height="21" viewBox="0 0 30 21" fill="none" xmlns="http://www.w3.org/2000/svg">
<path d="M28.8912 3.93924C28.5636 2.71068 27.6012 1.7483 26.3726 1.42069C24.1356 0.811523 15.1978 0.811523 15.1978 0.811523C15.1978 0.811523 6.26003 0.811523 4.02301 1.40021C2.82005 1.72783 1.83208 2.7158 1.50446 3.93924C0.915771 6.17113 0.915771 10.809 0.915771 10.809C0.915771 10.809 0.915771 15.4673 1.50446 17.6838C1.83208 18.9124 2.79445 19.8747 4.02301 20.2024C6.27538 20.8115 15.1927 20.8115 15.1927 20.8115C15.1927 20.8115 24.1305 20.8115 26.3675 20.2228C27.5961 19.8952 28.5585 18.9328 28.8861 17.7043C29.4799 15.4673 29.4799 10.8294 29.4799 10.8294C29.4799 10.8294 29.5004 6.17625 28.8912 3.93924ZM12.3517 15.0987V6.52435L19.7845 10.809L12.3517 15.0987Z" fill="#74CCD8"/>
</svg>
